<?xml version="1.0" standalone="no"?>
<!DOCTYPE svg PUBLIC "-//W3C//DTD SVG 20010904//EN"
 "http://www.w3.org/TR/2001/REC-SVG-20010904/DTD/svg10.dtd">
<svg version="1.0" xmlns="http://www.w3.org/2000/svg"
 width="68.000000pt" height="66.000000pt" viewBox="0 0 68.000000 66.000000"
 preserveAspectRatio="xMidYMid meet">
<metadata>
Created by potrace 1.16, written by Peter Selinger 2001-2019
</metadata>
<g transform="translate(0.000000,66.000000) scale(0.100000,-0.100000)"
fill="#000000" stroke="none">
<path d="M0 330 l0 -330 340 0 340 0 0 330 0 330 -340 0 -340 0 0 -330z m327
123 c7 -16 18 -44 24 -63 7 -19 15 -39 19 -45 4 -5 10 -22 14 -37 9 -38 19
-35 40 12 16 36 21 40 52 40 28 0 35 -4 32 -17 -2 -9 -13 -20 -26 -23 -14 -3
-33 -23 -50 -54 -15 -27 -32 -51 -38 -53 -7 -2 -28 41 -49 99 -21 57 -39 105
-41 107 -1 1 -13 -19 -26 -45 -20 -43 -27 -49 -53 -49 -20 0 -31 5 -33 18 -3
12 3 17 21 17 20 0 29 10 50 60 29 66 46 74 64 33z"/>
</g>
</svg>
